<svg aria-hidden="true" style="position:absolute;width:0;height:0;overflow:hidden" xmlns="http://www.w3.org/2000/svg">
  <defs>
    <symbol id="icon-logo" viewBox="0 0 35 32">
      <path fill="#ecd979" style="fill:var(--color1, #ecd979)" d="M35.152 31.565h-1.096v-1.112h1.098v1.112zm-1.097 0h-1.098v-1.112h1.098v1.112zm-4.391 0h-1.098v-1.112h1.098v1.112zm-1.098 0h-1.098v-1.112h1.098v1.112zm-1.098 0H26.37v-1.112h1.098v1.112zm-6.588 0h-1.098v-1.112h1.098v1.112zm-6.586 0h-1.098v-1.112h1.098v1.112zm-6.588 0H6.608v-1.112h1.098v1.112zm-1.097 0H5.511v-1.112h1.097v1.112z"/>
      <path fill="#ecd979" style="fill:var(--color1, #ecd979)" d="M5.511 31.565H4.413v-1.112h1.099v1.112zm-4.391 0H.021v-1.112H1.12v1.112zm34.032-1.113h-1.096v-1.113h1.098v1.113zm-4.39 0h-1.098v-1.113h1.098v1.113z"/>
      <path fill="#ecd979" style="fill:var(--color1, #ecd979)" d="M29.664 30.452h-1.098v-1.113h1.098v1.113zm-1.098 0h-1.098v-1.113h1.098v1.113zm-7.686 0h-1.098v-1.113h1.098v1.113z"/>
      <path fill="#ecd979" style="fill:var(--color1, #ecd979)" d="M19.783 30.452h-1.098v-1.113h1.098v1.113zm-4.391 0h-1.098v-1.113h1.098v1.113zM14.294 30.452h-1.098v-1.113h1.098v1.113zm-7.685 0H5.511v-1.113h1.097v1.113z"/>
      <path fill="#ecd979" style="fill:var(--color1, #ecd979)" d="M5.511 30.452H4.413v-1.113h1.099v1.113zm-1.098 0H3.315v-1.113h1.098v1.113zm27.446-1.113h-1.098v-1.113h1.098v1.112zm-1.097 0h-1.098v-1.113h1.098v1.112zM29.664 29.339h-1.098v-1.113h1.098v1.112zm-8.784 0h-1.098v-1.113h1.098v1.112z"/>
      <path fill="#ecd979" style="fill:var(--color1, #ecd979)" d="M19.783 29.339h-1.098v-1.113h1.098v1.112zM18.685 29.339h-1.098v-1.113h1.098v1.112zm-2.195 0h-1.098v-1.113h1.098v1.112zm-1.098 0h-1.098v-1.113h1.098v1.112z"/>
      <path fill="#ecd979" style="fill:var(--color1, #ecd979)" d="M14.294 29.339h-1.098v-1.113h1.098v1.112zm-8.783 0H4.413v-1.113h1.099v1.112zm-1.098 0H3.315v-1.113h1.098v1.112zm-1.098 0H2.217v-1.113h1.098v1.112zm29.642-1.113h-1.098v-1.114h1.098v1.114zm-1.098 0h-1.098v-1.114h1.098v1.114zm-1.097 0h-1.098v-1.114h1.098v1.114zm-5.49 0h-1.098v-1.114h1.098v1.114zm-1.098 0h-1.098v-1.114h1.098v1.114zm-1.097 0h-1.098v-1.114h1.098v1.114zm-3.294 0h-1.098v-1.114h1.098v1.114zM18.685 28.226h-1.098v-1.114h1.098v1.114zm-2.195 0h-1.098v-1.114h1.098v1.114zm-1.098 0h-1.098v-1.114h1.098v1.114zm-3.294 0H11v-1.114h1.098v1.114zm-1.098 0H9.902v-1.114H11v1.114zm-1.098 0H8.804v-1.114h1.098v1.114zm-5.489 0H3.315v-1.114h1.098v1.114zm-1.098 0H2.217v-1.114h1.098v1.114z"/>
      <path fill="#ecd979" style="fill:var(--color1, #ecd979)" d="M2.218 28.226H1.12v-1.114h1.098v1.114zm31.837-1.113h-1.098V26h1.098v1.113zm-1.098 0h-1.098V26h1.098v1.113zm-1.098 0h-1.098V26h1.098v1.113zm-7.685 0h-1.098V26h1.098v1.113zm-1.097 0h-1.098V26h1.098v1.113zm-1.099 0H20.88V26h1.098v1.113zm-3.293 0h-1.098V26h1.098v1.113zm-2.195 0h-1.098V26h1.098v1.113zm-3.294 0h-1.098V26h1.098v1.113zm-1.098 0H11V26h1.098v1.113zm-1.098 0H9.902V26H11v1.113z"/>
      <path fill="#ecd979" style="fill:var(--color1, #ecd979)" d="M3.315 27.113H2.217V26h1.098v1.113z"/>
      <path fill="#ecd979" style="fill:var(--color1, #ecd979)" d="M2.218 27.113H1.12V26h1.098v1.113zM1.12 27.113H.021V26H1.12v1.113zM34.055 26h-1.098v-1.113h1.098V26zm-1.098 0h-1.098v-1.113h1.098V26zm-9.88 0h-1.098v-1.113h1.098V26zm-1.099 0H20.88v-1.113h1.098V26zM20.88 26h-1.098v-1.113h1.098V26zm-6.586 0h-1.098v-1.113h1.098V26zm-1.098 0h-1.098v-1.113h1.098V26zm-1.098 0H11v-1.113h1.098V26zm-9.88 0H1.12v-1.113h1.098V26zM1.12 26H.021v-1.113H1.12V26zm32.935-1.113h-1.098v-1.114h1.098v1.114zm-5.489 0h-1.098v-1.114h1.098v1.114zm-9.881 0h-1.098v-1.114h1.098v1.114zm-2.195 0h-1.098v-1.114h1.098v1.114zm-9.881 0H5.511v-1.114h1.097v1.114zm-5.489 0H.021v-1.114H1.12v1.114zm27.446-1.113h-1.098v-1.112h1.098v1.112zm-1.098 0H26.37v-1.112h1.098v1.112zm-7.685 0h-1.098v-1.112h1.098v1.112z"/>
      <path fill="#ecd979" style="fill:var(--color1, #ecd979)" d="M18.685 23.774h-1.098v-1.112h1.098v1.112zm-2.195 0h-1.098v-1.112h1.098v1.112zm-1.098 0h-1.098v-1.112h1.098v1.112zm-7.686 0H6.608v-1.112h1.098v1.112zm-1.097 0H5.511v-1.112h1.097v1.112zm21.957-1.113h-1.098v-1.113h1.098v1.113zm-1.098 0H26.37v-1.113h1.098v1.113zm-1.098 0h-1.098v-1.113h1.098v1.113zm-5.49 0h-1.098v-1.113h1.098v1.113z"/>
      <path fill="#ecd979" style="fill:var(--color1, #ecd979)" d="M19.783 22.661h-1.098v-1.113h1.098v1.113zm-4.391 0h-1.098v-1.113h1.098v1.113zM14.294 22.661h-1.098v-1.113h1.098v1.113zm-5.489 0H7.707v-1.113h1.098v1.113zm-1.099 0H6.608v-1.113h1.098v1.113zm-1.097 0H5.511v-1.113h1.097v1.113zm20.859-1.113H26.37v-1.113h1.098v1.112zm-1.098 0h-1.098v-1.113h1.098v1.112zm-4.392 0H20.88v-1.113h1.098v1.112zM20.88 21.548h-1.098v-1.113h1.098v1.112zm-6.586 0h-1.098v-1.113h1.098v1.112zm-1.098 0h-1.098v-1.113h1.098v1.112zm-4.391 0H7.707v-1.113h1.098v1.112zm-1.099 0H6.608v-1.113h1.098v1.112zm24.153-1.113h-1.098v-1.114h1.098v1.114zm-1.097 0h-1.098v-1.114h1.098v1.114z"/>
      <path fill="#ecd979" style="fill:var(--color1, #ecd979)" d="M29.664 20.435h-1.098v-1.114h1.098v1.114zm-3.294 0h-1.098v-1.114h1.098v1.114zm-3.293 0h-1.098v-1.114h1.098v1.114zm-1.099 0H20.88v-1.114h1.098v1.114zm-8.782 0h-1.098v-1.114h1.098v1.114zm-1.098 0H11v-1.114h1.098v1.114zm-3.293 0H7.707v-1.114h1.098v1.114zm-3.294 0H4.413v-1.114h1.099v1.114zm-1.098 0H3.315v-1.114h1.098v1.114zm-1.098 0H2.217v-1.114h1.098v1.114zm31.837-1.113h-1.096v-1.113h1.098v1.113zm-4.39 0h-1.098v-1.113h1.098v1.113z"/>
      <path fill="#ecd979" style="fill:var(--color1, #ecd979)" d="M29.664 19.322h-1.098v-1.113h1.098v1.113zm-1.098 0h-1.098v-1.113h1.098v1.113zm-4.392 0h-1.098v-1.113h1.098v1.113zm-1.097 0h-1.098v-1.113h1.098v1.113zm-10.979 0H11v-1.113h1.098v1.113zm-1.098 0H9.902v-1.113H11v1.113zm-4.391 0H5.511v-1.113h1.097v1.113z"/>
      <path fill="#ecd979" style="fill:var(--color1, #ecd979)" d="M5.511 19.322H4.413v-1.113h1.099v1.113zm-1.098 0H3.315v-1.113h1.098v1.113zm30.739-1.114h-1.096v-1.112h1.098v1.112zm-1.097 0h-1.098v-1.112h1.098v1.112zm-4.391 0h-1.098v-1.112h1.098v1.112zm-1.098 0h-1.098v-1.112h1.098v1.112zm-1.098 0H26.37v-1.112h1.098v1.112zm-2.196 0h-1.098v-1.112h1.098v1.112zm-1.098 0h-1.098v-1.112h1.098v1.112zm-6.587 0h-1.098v-1.112h1.098v1.112zm-6.587 0H9.902v-1.112H11v1.112zm-1.098 0H8.804v-1.112h1.098v1.112zm-2.196 0H6.608v-1.112h1.098v1.112zm-1.097 0H5.511v-1.112h1.097v1.112z"/>
      <path fill="#ecd979" style="fill:var(--color1, #ecd979)" d="M5.511 18.208H4.413v-1.112h1.099v1.112zm-4.413-1.112H0v-1.114h1.098v1.114zm1.12 0H1.12v-1.114h1.098v1.114zm-1.12 1.112H0v-1.112h1.098v1.112zm0-2.226H0v-1.113h1.098v1.113zm34.054 1.114h-1.096v-1.114h1.098v1.114zm-1.097 0h-1.098v-1.114h1.098v1.114zm-1.098 0h-1.098v-1.114h1.098v1.114zm-14.272 0h-1.098v-1.114h1.098v1.114zm-1.098 0h-1.098v-1.114h1.098v1.114zm-1.097 0h-1.098v-1.114h1.098v1.114zm18.662-1.114h-1.096v-1.113h1.098v1.113zm-1.097 0h-1.098v-1.113h1.098v1.113zm-4.391 0h-1.098v-1.113h1.098v1.113zm-1.098 0h-1.098v-1.113h1.098v1.113zm-1.098 0H26.37v-1.113h1.098v1.113zm-2.196 0h-1.098v-1.113h1.098v1.113zm-1.098 0h-1.098v-1.113h1.098v1.113zm-6.587 0h-1.098v-1.113h1.098v1.113zm-6.587 0H9.902v-1.113H11v1.113zm-1.098 0H8.804v-1.113h1.098v1.113zm-2.196 0H6.608v-1.113h1.098v1.113zm-1.097 0H5.511v-1.113h1.097v1.113z"/>
      <path fill="#ecd979" style="fill:var(--color1, #ecd979)" d="M5.511 15.982H4.413v-1.113h1.099v1.113zm29.641-1.112h-1.096v-1.113h1.098v1.112zm-4.39 0h-1.098v-1.113h1.098v1.112z"/>
      <path fill="#ecd979" style="fill:var(--color1, #ecd979)" d="M29.664 14.87h-1.098v-1.113h1.098v1.112zm-1.098 0h-1.098v-1.113h1.098v1.112zm-4.392 0h-1.098v-1.113h1.098v1.112zm-1.097 0h-1.098v-1.113h1.098v1.112zm-10.979 0H11v-1.113h1.098v1.112zm-1.098 0H9.902v-1.113H11v1.112zm-4.391 0H5.511v-1.113h1.097v1.112z"/>
      <path fill="#ecd979" style="fill:var(--color1, #ecd979)" d="M5.511 14.87H4.413v-1.113h1.099v1.112zm-1.098 0H3.315v-1.113h1.098v1.112zm27.446-1.113h-1.098v-1.114h1.098v1.114zm-1.097 0h-1.098v-1.114h1.098v1.114zM29.664 13.757h-1.098v-1.114h1.098v1.114zm-3.294 0h-1.098v-1.114h1.098v1.114zm-3.293 0h-1.098v-1.114h1.098v1.114zm-1.099 0H20.88v-1.114h1.098v1.114zm-8.782 0h-1.098v-1.114h1.098v1.114zm-1.098 0H11v-1.114h1.098v1.114zm-3.293 0H7.707v-1.114h1.098v1.114zm-3.294 0H4.413v-1.114h1.099v1.114zm-1.098 0H3.315v-1.114h1.098v1.114zm-1.098 0H2.217v-1.114h1.098v1.114zm24.153-1.114H26.37V11.53h1.098v1.113zm-1.098 0h-1.098V11.53h1.098v1.113zm-4.392 0H20.88V11.53h1.098v1.113z"/>
      <path fill="#ecd979" style="fill:var(--color1, #ecd979)" d="M20.88 12.643h-1.098V11.53h1.098v1.113zm-6.586 0h-1.098V11.53h1.098v1.113zm-1.098 0h-1.098V11.53h1.098v1.113zm-4.391 0H7.707V11.53h1.098v1.113zm-1.099 0H6.608V11.53h1.098v1.113zm20.86-1.113h-1.098v-1.113h1.098v1.113zm-1.098 0H26.37v-1.113h1.098v1.113zm-1.098 0h-1.098v-1.113h1.098v1.113zm-5.49 0h-1.098v-1.113h1.098v1.113z"/>
      <path fill="#ecd979" style="fill:var(--color1, #ecd979)" d="M19.783 11.53h-1.098v-1.113h1.098v1.113zm-4.391 0h-1.098v-1.113h1.098v1.113z"/>
      <path fill="#ecd979" style="fill:var(--color1, #ecd979)" d="M14.294 11.53h-1.098v-1.113h1.098v1.113zm-5.489 0H7.707v-1.113h1.098v1.113zm-1.099 0H6.608v-1.113h1.098v1.113zm-1.097 0H5.511v-1.113h1.097v1.113zm21.957-1.112h-1.098V9.304h1.098v1.114zm-1.098 0H26.37V9.304h1.098v1.114zm-7.685 0h-1.098V9.304h1.098v1.114z"/>
      <path fill="#ecd979" style="fill:var(--color1, #ecd979)" d="M18.685 10.418h-1.098V9.304h1.098v1.114zm-2.195 0h-1.098V9.304h1.098v1.114zm-1.098 0h-1.098V9.304h1.098v1.114zm-7.686 0H6.608V9.304h1.098v1.114zm-1.097 0H5.511V9.304h1.097v1.114zm21.957-1.114h-1.098V8.192h1.098v1.112zm-9.881 0h-1.098V8.192h1.098v1.112zm-2.195 0h-1.098V8.192h1.098v1.112zm-9.881 0H5.511V8.192h1.097v1.112zm27.446-1.112h-1.098V7.078h1.098v1.113zm-32.935 0H.021V7.078H1.12v1.113zM34.055 7.078h-1.098V5.964h1.098v1.114zm-1.098 0h-1.098V5.964h1.098v1.114zm-9.88 0h-1.098V5.964h1.098v1.114zm-1.099 0H20.88V5.964h1.098v1.114zM20.88 7.078h-1.098V5.964h1.098v1.114zm-6.586 0h-1.098V5.964h1.098v1.114zm-1.098 0h-1.098V5.964h1.098v1.114zm-1.098 0H11V5.964h1.098v1.114zm-9.88 0H1.12V5.964h1.098v1.114z"/>
      <path fill="#ecd979" style="fill:var(--color1, #ecd979)" d="M1.12 7.078H.021V5.964H1.12v1.114zm32.935-1.112h-1.098V4.852h1.098v1.114zm-1.098 0h-1.098V4.852h1.098v1.114zm-1.098 0h-1.098V4.852h1.098v1.114zm-7.685 0h-1.098V4.852h1.098v1.114zm-1.097 0h-1.098V4.852h1.098v1.114zm-1.099 0H20.88V4.852h1.098v1.114zm-3.293 0h-1.098V4.852h1.098v1.114zm-2.195 0h-1.098V4.852h1.098v1.114zm-3.294 0h-1.098V4.852h1.098v1.114zm-1.098 0H11V4.852h1.098v1.114zm-1.098 0H9.902V4.852H11v1.114zm-7.685 0H2.217V4.852h1.098v1.114z"/>
      <path fill="#ecd979" style="fill:var(--color1, #ecd979)" d="M2.218 5.966H1.12V4.852h1.098v1.114zM1.12 5.966H.021V4.852H1.12v1.114zm31.837-1.114h-1.098V3.739h1.098v1.113zm-1.098 0h-1.098V3.739h1.098v1.113zm-1.097 0h-1.098V3.739h1.098v1.113zm-5.49 0h-1.098V3.739h1.098v1.113zm-1.098 0h-1.098V3.739h1.098v1.113zm-1.097 0h-1.098V3.739h1.098v1.113zm-3.294 0h-1.098V3.739h1.098v1.113zM18.685 4.852h-1.098V3.739h1.098v1.113zm-2.195 0h-1.098V3.739h1.098v1.113zm-1.098 0h-1.098V3.739h1.098v1.113zm-3.294 0H11V3.739h1.098v1.113zm-1.098 0H9.902V3.739H11v1.113zm-1.098 0H8.804V3.739h1.098v1.113zm-5.489 0H3.315V3.739h1.098v1.113zm-1.098 0H2.217V3.739h1.098v1.113z"/>
      <path fill="#ecd979" style="fill:var(--color1, #ecd979)" d="M2.218 4.852H1.12V3.739h1.098v1.113zm29.641-1.113h-1.098V2.626h1.098v1.112zm-1.097 0h-1.098V2.626h1.098v1.112z"/>
      <path fill="#ecd979" style="fill:var(--color1, #ecd979)" d="M29.664 3.739h-1.098V2.626h1.098v1.112zm-8.784 0h-1.098V2.626h1.098v1.112z"/>
      <path fill="#ecd979" style="fill:var(--color1, #ecd979)" d="M19.783 3.739h-1.098V2.626h1.098v1.112zM18.685 3.739h-1.098V2.626h1.098v1.112zm-2.195 0h-1.098V2.626h1.098v1.112zm-1.098 0h-1.098V2.626h1.098v1.112z"/>
      <path fill="#ecd979" style="fill:var(--color1, #ecd979)" d="M14.294 3.739h-1.098V2.626h1.098v1.112zm-8.783 0H4.413V2.626h1.099v1.112zm-1.098 0H3.315V2.626h1.098v1.112zm-1.098 0H2.217V2.626h1.098v1.112zm31.837-1.113h-1.096V1.512h1.098v1.114zm-4.39 0h-1.098V1.512h1.098v1.114zM29.664 2.626h-1.098V1.512h1.098v1.114zm-1.098 0h-1.098V1.512h1.098v1.114zm-7.686 0h-1.098V1.512h1.098v1.114z"/>
      <path fill="#ecd979" style="fill:var(--color1, #ecd979)" d="M19.783 2.626h-1.098V1.512h1.098v1.114zm-4.391 0h-1.098V1.512h1.098v1.114zM14.294 2.626h-1.098V1.512h1.098v1.114zm-7.685 0H5.511V1.512h1.097v1.114z"/>
      <path fill="#ecd979" style="fill:var(--color1, #ecd979)" d="M5.511 2.626H4.413V1.512h1.099v1.114zm-1.098 0H3.315V1.512h1.098v1.114zm30.739-1.113h-1.096V.4h1.098v1.113zm-1.097 0h-1.098V.4h1.098v1.113zm-4.391 0h-1.098V.4h1.098v1.113zm-1.098 0h-1.098V.4h1.098v1.113zm-1.098 0H26.37V.4h1.098v1.113zm-6.588 0h-1.098V.4h1.098v1.113zm-6.586 0h-1.098V.4h1.098v1.113zm-6.588 0H6.608V.4h1.098v1.113z"/>
      <path fill="#ecd979" style="fill:var(--color1, #ecd979)" d="M6.609 1.513H5.511V.4h1.097v1.113z"/>
      <path fill="#ecd979" style="fill:var(--color1, #ecd979)" d="M5.511 1.513H4.413V.4h1.099v1.113zm-4.391 0H.021V.4H1.12v1.113z"/>
    </symbol>
  </defs>
</svg>

